# Blender v2.79 (sub 0) OBJ File: ''
# www.blender.org
mtllib untitled.mtl
o Circle
v 5.778688 2.691461 -1.000000
v 6.161371 2.691461 -0.923880
v 6.485795 2.691461 -0.707107
v 6.702568 2.691461 -0.382683
v 6.778688 2.691461 0.000000
v 6.702568 2.691461 0.382684
v 6.485795 2.691461 0.707107
v 6.161371 2.691461 0.923880
v 5.778688 2.691461 1.000000
v 5.396005 2.691461 0.923880
v 5.071581 2.691461 0.707107
v 4.854808 2.691461 0.382684
v 4.778688 2.691461 -0.000000
v 4.854808 2.691461 -0.382684
v 5.071581 2.691461 -0.707107
v 5.396005 2.691461 -0.923880
v 5.778688 2.819708 -1.140239
v 6.215038 2.819708 -1.053443
v 6.584959 2.819708 -0.806271
v 6.832131 2.819708 -0.436351
v 6.918927 2.819708 0.000000
v 6.832131 2.819708 0.436351
v 6.584959 2.819708 0.806271
v 6.215038 2.819708 1.053443
v 5.778688 2.819708 1.140239
v 5.342338 2.819708 1.053443
v 4.972417 2.819708 0.806271
v 4.725245 2.819708 0.436351
v 4.638449 2.819708 -0.000000
v 4.725245 2.819708 -0.436351
v 4.972418 2.819708 -0.806271
v 5.342338 2.819708 -1.053444
v 5.778688 3.673547 -1.140239
v 6.215038 3.673547 -1.053443
v 6.584959 3.673547 -0.806271
v 6.832131 3.673547 -0.436351
v 6.918927 3.673547 0.000000
v 6.832131 3.673547 0.436351
v 6.584959 3.673547 0.806271
v 6.215038 3.673547 1.053443
v 5.778688 3.673547 1.140239
v 5.342338 3.673547 1.053443
v 4.972417 3.673547 0.806271
v 4.725245 3.673547 0.436351
v 4.638449 3.673547 -0.000000
v 4.725245 3.673547 -0.436351
v 4.972418 3.673547 -0.806271
v 5.342338 3.673547 -1.053444
v 5.778688 3.800402 -1.079646
v 6.191851 3.800402 -0.997463
v 6.542113 3.800402 -0.763425
v 6.776151 3.800402 -0.413163
v 6.858334 3.800402 0.000000
v 6.776151 3.800402 0.413163
v 6.542113 3.800402 0.763425
v 6.191851 3.800402 0.997463
v 5.778688 3.800402 1.079646
v 5.365526 3.800402 0.997463
v 5.015263 3.800402 0.763425
v 4.781225 3.800402 0.413163
v 4.699042 3.800402 -0.000000
v 4.781225 3.800402 -0.413163
v 5.015264 3.800402 -0.763425
v 5.365526 3.800402 -0.997463
v 5.778688 3.800402 -1.079646
v 6.191851 3.800402 -0.997463
v 6.542113 3.800402 -0.763425
v 6.776151 3.800402 -0.413163
v 6.858334 3.800402 0.000000
v 6.776151 3.800402 0.413163
v 6.542113 3.800402 0.763425
v 6.191851 3.800402 0.997463
v 5.778688 3.800402 1.079646
v 5.365526 3.800402 0.997463
v 5.015263 3.800402 0.763425
v 4.781225 3.800402 0.413163
v 4.699042 3.800402 -0.000000
v 4.781225 3.800402 -0.413163
v 5.015264 3.800402 -0.763425
v 5.365526 3.800402 -0.997463
v 5.778688 3.732236 -1.231256
v 6.249869 3.732236 -1.137532
v 6.649318 3.732236 -0.870630
v 6.916221 3.732236 -0.471181
v 7.009944 3.732236 0.000000
v 6.916221 3.732236 0.471182
v 6.649318 3.732236 0.870630
v 6.249869 3.732236 1.137532
v 5.778688 3.732236 1.231256
v 5.307507 3.732236 1.137533
v 4.908059 3.732236 0.870630
v 4.641155 3.732236 0.471182
v 4.547431 3.732236 -0.000000
v 4.641155 3.732236 -0.471182
v 4.908059 3.732236 -0.870630
v 5.307507 3.732236 -1.137533
v 5.778688 3.937670 -1.231256
v 6.249869 3.937670 -1.137532
v 6.649318 3.937670 -0.870630
v 6.916221 3.937670 -0.471181
v 7.009944 3.937670 0.000000
v 6.916221 3.937670 0.471182
v 6.649318 3.937670 0.870630
v 6.249869 3.937670 1.137532
v 5.778688 3.937670 1.231256
v 5.307507 3.937670 1.137533
v 4.908059 3.937670 0.870630
v 4.641155 3.937670 0.471182
v 4.547431 3.937670 -0.000000
v 4.641155 3.937670 -0.471182
v 4.908059 3.937670 -0.870630
v 5.307507 3.937670 -1.137533
v 5.778688 3.978757 -1.181150
v 6.230694 3.978757 -1.091240
v 6.613887 3.978757 -0.835199
v 6.869928 3.978757 -0.452006
v 6.959837 3.978757 0.000000
v 6.869928 3.978757 0.452006
v 6.613887 3.978757 0.835199
v 6.230694 3.978757 1.091240
v 5.778688 3.978757 1.181150
v 5.326682 3.978757 1.091240
v 4.943489 3.978757 0.835199
v 4.687448 3.978757 0.452007
v 4.597538 3.978757 -0.000000
v 4.687448 3.978757 -0.452007
v 4.943489 3.978757 -0.835199
v 5.326682 3.978757 -1.091240
v 5.778688 3.732236 -1.147833
v 6.217945 3.732236 -1.060459
v 6.590328 3.732236 -0.811641
v 6.839148 3.732236 -0.439257
v 6.926521 3.732236 0.000000
v 6.839148 3.732236 0.439257
v 6.590328 3.732236 0.811641
v 6.217945 3.732236 1.060459
v 5.778688 3.732236 1.147833
v 5.339432 3.732236 1.060459
v 4.967048 3.732236 0.811641
v 4.718228 3.732236 0.439257
v 4.630855 3.732236 -0.000000
v 4.718229 3.732236 -0.439257
v 4.967048 3.732236 -0.811641
v 5.339432 3.732236 -1.060460
vt 0.096029 0.346667
vt 0.060882 0.361279
vt 0.049986 0.345404
vt 0.092103 0.327856
vt 0.096112 0.539900
vt 0.134353 0.540005
vt 0.138293 0.558875
vt 0.092494 0.558875
vt 0.134056 0.346844
vt 0.137726 0.327973
vt 0.060759 0.525093
vt 0.050125 0.541260
vt 0.169097 0.361760
vt 0.179791 0.345748
vt 0.033718 0.497833
vt 0.017690 0.508715
vt 0.195767 0.389138
vt 0.211815 0.378410
vt 0.019123 0.462277
vt 0.000151 0.466215
vt 0.210171 0.424798
vt 0.229082 0.420830
vt 0.019195 0.423846
vt 0.000172 0.420252
vt 0.196378 0.498443
vt 0.210594 0.463130
vt 0.229537 0.466490
vt 0.212549 0.508826
vt 0.033895 0.388388
vt 0.017710 0.377840
vt 0.169585 0.525453
vt 0.180481 0.541305
vt 0.000151 0.000151
vt 0.044094 0.000151
vt 0.044094 0.084485
vt 0.000151 0.084486
vt 0.307753 0.000151
vt 0.351697 0.000151
vt 0.351697 0.084485
vt 0.307753 0.084485
vt 0.659299 0.000151
vt 0.703242 0.000151
vt 0.703242 0.084486
vt 0.659299 0.084486
vt 0.263810 0.000151
vt 0.263810 0.084485
vt 0.615356 0.000151
vt 0.615356 0.084486
vt 0.219867 0.000151
vt 0.219867 0.084485
vt 0.571413 0.000151
vt 0.571413 0.084486
vt 0.175924 0.000151
vt 0.175924 0.084485
vt 0.527469 0.000151
vt 0.527469 0.084486
vt 0.131980 0.000151
vt 0.131980 0.084485
vt 0.483526 0.000151
vt 0.483526 0.084486
vt 0.088037 0.000151
vt 0.088037 0.084485
vt 0.395640 0.000151
vt 0.439583 0.000151
vt 0.439583 0.084486
vt 0.395640 0.084485
vt 0.471780 0.467030
vt 0.454494 0.511137
vt 0.442277 0.503446
vt 0.457511 0.464341
vt 0.240634 0.469022
vt 0.240634 0.421537
vt 0.254903 0.424227
vt 0.254884 0.466326
vt 0.454389 0.375594
vt 0.471780 0.419546
vt 0.457531 0.422242
vt 0.442264 0.383351
vt 0.258025 0.512974
vt 0.270151 0.505217
vt 0.421913 0.341816
vt 0.413805 0.353553
vt 0.290501 0.546752
vt 0.298609 0.535015
vt 0.379100 0.323641
vt 0.376359 0.337565
vt 0.333314 0.564927
vt 0.336054 0.551003
vt 0.332665 0.324164
vt 0.335739 0.338036
vt 0.379749 0.564404
vt 0.376675 0.550533
vt 0.290117 0.343188
vt 0.298445 0.354820
vt 0.422298 0.545379
vt 0.413970 0.533748
vt 0.257920 0.377431
vt 0.270137 0.385121
vt 0.335913 0.338751
vt 0.298890 0.355414
vt 0.376502 0.549817
vt 0.413525 0.533153
vt 0.270782 0.385508
vt 0.441633 0.503060
vt 0.255649 0.424352
vt 0.456765 0.464215
vt 0.255623 0.466172
vt 0.456791 0.422396
vt 0.441640 0.383765
vt 0.270774 0.504803
vt 0.413395 0.354169
vt 0.299019 0.534399
vt 0.376230 0.338289
vt 0.336183 0.550279
vt 0.486830 0.475388
vt 0.623829 0.338389
vt 0.651080 0.365640
vt 0.514081 0.502639
vt 0.665828 0.401245
vt 0.549686 0.517387
vt 0.472082 0.439783
vt 0.588224 0.323641
vt 0.472082 0.401245
vt 0.549686 0.323641
vt 0.486830 0.365640
vt 0.514081 0.338389
vt 0.665828 0.439783
vt 0.588224 0.517387
vt 0.651080 0.475388
vt 0.623829 0.502639
vt 0.288086 0.585520
vt 0.240634 0.585520
vt 0.240634 0.565229
vt 0.288086 0.565229
vt 0.620242 0.585520
vt 0.572791 0.585520
vt 0.572791 0.565229
vt 0.620242 0.565229
vt 0.999849 0.585519
vt 0.952398 0.585519
vt 0.952398 0.565229
vt 0.999849 0.565228
vt 0.525340 0.585520
vt 0.525340 0.565229
vt 0.904947 0.585519
vt 0.904947 0.565229
vt 0.477889 0.585520
vt 0.477889 0.565229
vt 0.857497 0.585519
vt 0.810046 0.585520
vt 0.810046 0.565229
vt 0.857497 0.565229
vt 0.430439 0.585520
vt 0.430438 0.565229
vt 0.762595 0.585520
vt 0.762595 0.565229
vt 0.382987 0.585520
vt 0.382988 0.565229
vt 0.715144 0.585520
vt 0.715144 0.565229
vt 0.335536 0.585520
vt 0.335537 0.565229
vt 0.667693 0.585520
vt 0.667693 0.565229
vt 0.051925 0.103319
vt 0.096050 0.084787
vt 0.097359 0.091157
vt 0.055599 0.108694
vt 0.144434 0.327554
vt 0.096585 0.327554
vt 0.097844 0.321171
vt 0.143124 0.321185
vt 0.143899 0.084787
vt 0.142639 0.091171
vt 0.052393 0.309031
vt 0.056024 0.303615
vt 0.188091 0.103310
vt 0.184460 0.108727
vt 0.018592 0.274867
vt 0.024030 0.271238
vt 0.221892 0.137475
vt 0.216453 0.141103
vt 0.000269 0.230300
vt 0.006686 0.229000
vt 0.240215 0.182042
vt 0.240333 0.230256
vt 0.233904 0.229035
vt 0.233797 0.183342
vt 0.000151 0.182086
vt 0.006580 0.183307
vt 0.222218 0.274839
vt 0.216749 0.271276
vt 0.018265 0.137502
vt 0.023735 0.141066
vt 0.188559 0.309022
vt 0.184884 0.303648
vt 0.336185 0.323339
vt 0.292346 0.305180
vt 0.296924 0.298329
vt 0.337792 0.315257
vt 0.336185 0.084787
vt 0.383636 0.084787
vt 0.382028 0.092869
vt 0.337793 0.092869
vt 0.383636 0.323339
vt 0.382028 0.315257
vt 0.292346 0.102946
vt 0.296924 0.109797
vt 0.427475 0.305180
vt 0.422897 0.298329
vt 0.258793 0.136499
vt 0.265644 0.141076
vt 0.479186 0.227789
vt 0.461028 0.271627
vt 0.454176 0.267050
vt 0.471105 0.226181
vt 0.240635 0.180338
vt 0.248716 0.181945
vt 0.479186 0.180338
vt 0.471105 0.181945
vt 0.240634 0.227788
vt 0.248716 0.226181
vt 0.461028 0.136499
vt 0.454176 0.141076
vt 0.258793 0.271627
vt 0.265644 0.267050
vt 0.427475 0.102946
vt 0.422897 0.109797
vn -0.5670 -0.7314 0.3789
vn 0.6689 -0.7314 -0.1330
vn -0.6689 -0.7314 0.1330
vn 0.6689 -0.7314 0.1330
vn -0.6689 -0.7314 -0.1330
vn 0.5670 -0.7314 0.3789
vn -0.5670 -0.7314 -0.3789
vn 0.3789 -0.7314 0.5670
vn -0.3789 -0.7314 -0.5670
vn 0.1330 -0.7314 0.6689
vn 0.1330 -0.7314 -0.6689
vn -0.1330 -0.7314 -0.6689
vn -0.1330 -0.7314 0.6689
vn 0.3789 -0.7314 -0.5670
vn -0.3789 -0.7314 0.5670
vn 0.5670 -0.7314 -0.3789
vn -0.5556 0.0000 0.8315
vn 0.8315 0.0000 -0.5556
vn -0.8315 0.0000 0.5556
vn 0.9808 0.0000 -0.1951
vn -0.9808 0.0000 0.1951
vn 0.9808 0.0000 0.1951
vn -0.9808 0.0000 -0.1951
vn 0.8315 0.0000 0.5556
vn -0.8315 0.0000 -0.5556
vn 0.5556 0.0000 0.8315
vn -0.5556 0.0000 -0.8315
vn 0.1951 0.0000 0.9808
vn 0.1951 0.0000 -0.9808
vn -0.1951 0.0000 -0.9808
vn -0.1951 0.0000 0.9808
vn 0.5556 0.0000 -0.8315
vn -0.5031 0.4242 -0.7529
vn 0.1767 0.4242 0.8882
vn 0.1767 0.4242 -0.8882
vn -0.1767 0.4242 -0.8882
vn -0.1767 0.4242 0.8882
vn 0.5031 0.4242 -0.7529
vn -0.5031 0.4242 0.7529
vn 0.7529 0.4242 -0.5031
vn -0.7529 0.4242 0.5031
vn 0.8882 0.4242 -0.1767
vn -0.8882 0.4242 0.1767
vn 0.8882 0.4242 0.1767
vn -0.8882 0.4242 -0.1767
vn 0.7529 0.4242 0.5031
vn -0.7529 0.4242 -0.5031
vn 0.5031 0.4242 0.7529
vn 0.0000 0.0000 1.0000
vn 0.0000 -1.0000 0.0000
vn 0.0000 1.0000 0.0000
vn 0.6291 -0.7672 -0.1251
vn -0.6291 -0.7672 -0.1251
vn 0.6291 -0.7672 0.1251
vn -0.5333 -0.7672 -0.3563
vn 0.5333 -0.7672 0.3563
vn -0.3564 -0.7672 -0.5333
vn 0.3564 -0.7672 0.5333
vn -0.1251 -0.7672 -0.6291
vn -0.1251 -0.7672 0.6291
vn 0.1251 -0.7672 0.6291
vn 0.1251 -0.7672 -0.6291
vn -0.3564 -0.7672 0.5333
vn 0.3564 -0.7672 -0.5333
vn -0.5333 -0.7672 0.3563
vn 0.5333 -0.7672 -0.3563
vn -0.6291 -0.7672 0.1251
usemtl None
s off
f 12/1/1 11/2/1 27/3/1 28/4/1
f 5/5/2 4/6/2 20/7/2 21/8/2
f 13/9/3 12/1/3 28/4/3 29/10/3
f 6/11/4 5/5/4 21/8/4 22/12/4
f 14/13/5 13/9/5 29/10/5 30/14/5
f 7/15/6 6/11/6 22/12/6 23/16/6
f 15/17/7 14/13/7 30/14/7 31/18/7
f 8/19/8 7/15/8 23/16/8 24/20/8
f 16/21/9 15/17/9 31/18/9 32/22/9
f 9/23/10 8/19/10 24/20/10 25/24/10
f 2/25/11 1/26/11 17/27/11 18/28/11
f 1/26/12 16/21/12 32/22/12 17/27/12
f 10/29/13 9/23/13 25/24/13 26/30/13
f 3/31/14 2/25/14 18/28/14 19/32/14
f 11/2/15 10/29/15 26/30/15 27/3/15
f 4/6/16 3/31/16 19/32/16 20/7/16
f 27/33/17 26/34/17 42/35/17 43/36/17
f 20/37/18 19/38/18 35/39/18 36/40/18
f 28/41/19 27/42/19 43/43/19 44/44/19
f 21/45/20 20/37/20 36/40/20 37/46/20
f 29/47/21 28/41/21 44/44/21 45/48/21
f 22/49/22 21/45/22 37/46/22 38/50/22
f 30/51/23 29/47/23 45/48/23 46/52/23
f 23/53/24 22/49/24 38/50/24 39/54/24
f 31/55/25 30/51/25 46/52/25 47/56/25
f 24/57/26 23/53/26 39/54/26 40/58/26
f 32/59/27 31/55/27 47/56/27 48/60/27
f 25/61/28 24/57/28 40/58/28 41/62/28
f 18/63/29 17/64/29 33/65/29 34/66/29
f 17/64/30 32/59/30 48/60/30 33/65/30
f 26/34/31 25/61/31 41/62/31 42/35/31
f 19/38/32 18/63/32 34/66/32 35/39/32
f 48/67/33 47/68/33 63/69/33 64/70/33
f 41/71/34 40/72/34 56/73/34 57/74/34
f 34/75/35 33/76/35 49/77/35 50/78/35
f 33/76/36 48/67/36 64/70/36 49/77/36
f 42/79/37 41/71/37 57/74/37 58/80/37
f 35/81/38 34/75/38 50/78/38 51/82/38
f 43/83/39 42/79/39 58/80/39 59/84/39
f 36/85/40 35/81/40 51/82/40 52/86/40
f 44/87/41 43/83/41 59/84/41 60/88/41
f 37/89/42 36/85/42 52/86/42 53/90/42
f 45/91/43 44/87/43 60/88/43 61/92/43
f 38/93/44 37/89/44 53/90/44 54/94/44
f 46/95/45 45/91/45 61/92/45 62/96/45
f 39/97/46 38/93/46 54/94/46 55/98/46
f 47/68/47 46/95/47 62/96/47 63/69/47
f 40/72/48 39/97/48 55/98/48 56/73/48
f 54/94/49 53/90/49 69/99/49 70/100/49
f 62/96/49 61/92/49 77/101/49 78/102/49
f 55/98/49 54/94/49 70/100/49 71/103/49
f 63/69/49 62/96/49 78/102/49 79/104/49
f 56/73/49 55/98/49 71/103/49 72/105/49
f 64/70/49 63/69/49 79/104/49 80/106/49
f 57/74/49 56/73/49 72/105/49 73/107/49
f 50/78/49 49/77/49 65/108/49 66/109/49
f 49/77/49 64/70/49 80/106/49 65/108/49
f 58/80/49 57/74/49 73/107/49 74/110/49
f 51/82/49 50/78/49 66/109/49 67/111/49
f 59/84/49 58/80/49 74/110/49 75/112/49
f 52/86/49 51/82/49 67/111/49 68/113/49
f 60/88/49 59/84/49 75/112/49 76/114/49
f 53/90/49 52/86/49 68/113/49 69/99/49
f 61/92/49 60/88/49 76/114/49 77/101/49
f 2/115/50 9/116/50 10/117/50 1/118/50
f 11/119/50 16/120/50 1/118/50 10/117/50
f 3/121/50 8/122/50 9/116/50 2/115/50
f 4/123/50 7/124/50 8/122/50 3/121/50
f 5/125/50 6/126/50 7/124/50 4/123/50
f 12/127/50 15/128/50 16/120/50 11/119/50
f 13/129/50 14/130/50 15/128/50 12/127/50
f 73/107/51 72/105/51 65/108/51 80/106/51
f 66/109/51 65/108/51 72/105/51 71/103/51
f 67/111/51 66/109/51 71/103/51 70/100/51
f 68/113/51 67/111/51 70/100/51 69/99/51
f 74/110/51 73/107/51 80/106/51 79/104/51
f 75/112/51 74/110/51 79/104/51 78/102/51
f 76/114/51 75/112/51 78/102/51 77/101/51
f 93/131/22 94/132/22 110/133/22 109/134/22
f 86/135/25 87/136/25 103/137/25 102/138/25
f 94/139/24 95/140/24 111/141/24 110/142/24
f 87/136/27 88/143/27 104/144/27 103/137/27
f 95/140/26 96/145/26 112/146/26 111/141/26
f 88/143/30 89/147/30 105/148/30 104/144/30
f 81/149/31 82/150/31 98/151/31 97/152/31
f 96/145/28 81/149/28 97/152/28 112/146/28
f 89/147/29 90/153/29 106/154/29 105/148/29
f 82/150/17 83/155/17 99/156/17 98/151/17
f 90/153/32 91/157/32 107/158/32 106/154/32
f 83/155/19 84/159/19 100/160/19 99/156/19
f 91/157/18 92/161/18 108/162/18 107/158/18
f 84/159/21 85/163/21 101/164/21 100/160/21
f 92/161/20 93/131/20 109/134/20 108/162/20
f 85/163/23 86/135/23 102/138/23 101/164/23
f 108/165/52 109/166/52 125/167/52 124/168/52
f 101/169/53 102/170/53 118/171/53 117/172/53
f 109/166/54 110/173/54 126/174/54 125/167/54
f 102/170/55 103/175/55 119/176/55 118/171/55
f 110/173/56 111/177/56 127/178/56 126/174/56
f 103/175/57 104/179/57 120/180/57 119/176/57
f 111/177/58 112/181/58 128/182/58 127/178/58
f 104/179/59 105/183/59 121/184/59 120/180/59
f 97/185/60 98/186/60 114/187/60 113/188/60
f 112/181/61 97/185/61 113/188/61 128/182/61
f 105/183/62 106/189/62 122/190/62 121/184/62
f 98/186/63 99/191/63 115/192/63 114/187/63
f 106/189/64 107/193/64 123/194/64 122/190/64
f 99/191/65 100/195/65 116/196/65 115/192/65
f 107/193/66 108/165/66 124/168/66 123/194/66
f 100/195/67 101/169/67 117/172/67 116/196/67
f 94/197/51 93/198/51 141/199/51 142/200/51
f 87/201/51 86/202/51 134/203/51 135/204/51
f 95/205/51 94/197/51 142/200/51 143/206/51
f 88/207/51 87/201/51 135/204/51 136/208/51
f 96/209/51 95/205/51 143/206/51 144/210/51
f 89/211/51 88/207/51 136/208/51 137/212/51
f 82/213/51 81/214/51 129/215/51 130/216/51
f 81/214/51 96/209/51 144/210/51 129/215/51
f 90/217/51 89/211/51 137/212/51 138/218/51
f 83/219/51 82/213/51 130/216/51 131/220/51
f 91/221/51 90/217/51 138/218/51 139/222/51
f 84/223/51 83/219/51 131/220/51 132/224/51
f 92/225/51 91/221/51 139/222/51 140/226/51
f 85/227/51 84/223/51 132/224/51 133/228/51
f 93/198/51 92/225/51 140/226/51 141/199/51
f 86/202/51 85/227/51 133/228/51 134/203/51
f 130/216/51 129/215/51 138/218/51 137/212/51
f 139/222/51 138/218/51 129/215/51 144/210/51
f 131/220/51 130/216/51 137/212/51 136/208/51
f 132/224/51 131/220/51 136/208/51 135/204/51
f 133/228/51 132/224/51 135/204/51 134/203/51
f 140/226/51 139/222/51 144/210/51 143/206/51
f 141/199/51 140/226/51 143/206/51 142/200/51
f 114/187/50 121/184/50 122/190/50 113/188/50
f 115/192/50 120/180/50 121/184/50 114/187/50
f 123/194/50 128/182/50 113/188/50 122/190/50
f 124/168/50 127/178/50 128/182/50 123/194/50
f 125/167/50 126/174/50 127/178/50 124/168/50
f 116/196/50 119/176/50 120/180/50 115/192/50
f 117/172/50 118/171/50 119/176/50 116/196/50
